<svg xmlns="http://www.w3.org/2000/svg" xmlns:xlink="http://www.w3.org/1999/xlink" width="500" zoomAndPan="magnify" viewBox="0 0 375 374.999991" height="500" preserveAspectRatio="xMidYMid meet" version="1.0"><defs><clipPath id="6651f87a2a"><path d="M 0 60.257812 L 88 60.257812 L 88 274 L 0 274 Z M 0 60.257812 " clip-rule="nonzero"/></clipPath><clipPath id="82eee8bfb0"><path d="M 289 60.257812 L 373 60.257812 L 373 274 L 289 274 Z M 289 60.257812 " clip-rule="nonzero"/></clipPath><clipPath id="9368db0bb9"><path d="M 58 57.074219 L 317.300781 57.074219 L 317.300781 337 L 58 337 Z M 58 57.074219 " clip-rule="nonzero"/></clipPath></defs><rect x="-37.5" width="450" fill="#ffffff" y="-37.499999" height="449.999989" fill-opacity="1"/><rect x="-37.5" width="450" fill="#ebe2d9" y="-37.499999" height="449.999989" fill-opacity="1"/><path fill="#f3eee4" d="M 52.667969 253.398438 C 34.765625 251.0625 17.898438 241.570312 6.601562 227.476562 C -4.695312 213.382812 -10.296875 194.839844 -8.691406 176.839844 C 6.011719 179.746094 20.085938 186.882812 30.871094 197.300781 C 41.65625 207.71875 49.367188 221.292969 52.796875 235.898438 C 53.464844 225.089844 55.34375 214.476562 60.046875 204.726562 C 64.75 194.972656 71.921875 186.289062 81.128906 180.605469 C 84.527344 190.917969 86.128906 201.824219 85.09375 212.636719 C 84.199219 221.980469 81.53125 231.339844 76.042969 238.953125 C 70.554688 246.566406 60.386719 252.308594 52.667969 253.398438 Z M 52.667969 253.398438 " fill-opacity="1" fill-rule="nonzero"/><path fill="#f3eee4" d="M 46.8125 157.855469 C 28.550781 151.324219 13.402344 136.574219 6.367188 118.484375 C -0.664062 100.394531 0.539062 79.273438 9.578125 62.101562 C 22.316406 65.847656 35.121094 70.476562 44.375 80.003906 C 47.226562 82.941406 49.648438 86.28125 51.707031 89.820312 C 57.796875 100.296875 60.6875 112.613281 59.886719 124.707031 C 59.085938 136.800781 54.230469 148.273438 46.8125 157.855469 Z M 46.8125 157.855469 " fill-opacity="1" fill-rule="nonzero"/><g clip-path="url(#6651f87a2a)"><path fill="#c78045" d="M 82.90625 180.609375 C 82.679688 180.148438 82.265625 179.804688 81.773438 179.664062 C 81.277344 179.527344 80.746094 179.609375 80.3125 179.886719 C 69.878906 186.585938 59.441406 198.144531 54.230469 217.785156 C 53.59375 197.75 51.851562 177.753906 48.566406 158.445312 C 78.523438 122.714844 56.804688 67.132812 9.90625 60.363281 C 9.144531 60.253906 8.394531 60.640625 8.042969 61.328125 L 7.988281 61.4375 C 7.871094 61.601562 7.78125 61.777344 7.722656 61.964844 C -1.933594 81.402344 -1.660156 102.730469 5.25 120.601562 C 12.503906 139.363281 27.074219 154.289062 45.097656 159.332031 C 48.839844 181.433594 50.527344 204.453125 50.855469 227.382812 C 47.820312 218.585938 42.96875 210.136719 36.902344 202.707031 C 24.953125 188.054688 8.316406 177.375 -8.242188 175.574219 C -9.148438 175.472656 -9.988281 176.070312 -10.195312 176.964844 C -13.976562 193.457031 -7.742188 212.367188 4.179688 227.460938 C 15.746094 242.097656 32.625 253.109375 50.640625 254.886719 C 50.476562 260.640625 50.242188 266.371094 49.949219 272.050781 C 49.898438 273.046875 50.664062 273.898438 51.65625 273.949219 C 52.652344 274 53.5 273.234375 53.550781 272.238281 C 53.847656 266.484375 54.085938 260.683594 54.25 254.84375 C 76.726562 248.078125 85.800781 229.414062 87.527344 211.554688 C 88.691406 199.542969 86.496094 187.921875 82.90625 180.609375 Z M 46.992188 149.886719 C 46.683594 148.304688 46.359375 146.726562 46.023438 145.152344 C 50.320312 142.082031 54.066406 138.347656 57.109375 134.070312 C 56.3125 137.273438 55.210938 140.4375 53.796875 143.523438 C 51.851562 145.964844 49.566406 148.109375 46.992188 149.886719 Z M 8.0625 70.261719 C 10.175781 71.730469 12.464844 72.871094 14.882812 73.75 C 16.082031 75.667969 17.242188 77.613281 18.367188 79.585938 C 14.242188 78.339844 10.230469 76.464844 6.855469 73.832031 C 7.222656 72.636719 7.625 71.445312 8.0625 70.261719 Z M 19.105469 66.183594 C 19.367188 68.6875 19.417969 71.257812 19.128906 73.769531 C 18.902344 73.398438 18.675781 73.027344 18.449219 72.65625 C 18.628906 70.425781 18.59375 68.167969 18.347656 65.945312 C 18.601562 66.023438 18.851562 66.101562 19.105469 66.183594 Z M 23.3125 67.722656 C 23.660156 71.878906 23.683594 76.152344 22.867188 80.25 C 22.082031 78.816406 21.273438 77.394531 20.453125 75.992188 C 21.023438 72.980469 21.078125 69.832031 20.8125 66.761719 C 21.65625 67.066406 22.488281 67.386719 23.3125 67.722656 Z M 25.769531 68.804688 C 26.371094 74.027344 26.125 79.128906 24.992188 84.222656 C 24.683594 83.621094 24.367188 83.023438 24.050781 82.425781 C 25.242188 77.90625 25.351562 73.125 25.015625 68.460938 C 25.269531 68.574219 25.519531 68.6875 25.769531 68.804688 Z M 50.6875 91.601562 C 50.300781 94.128906 49.457031 96.578125 48.582031 98.976562 C 46.257812 105.347656 42.816406 111.324219 38.367188 116.441406 C 37.839844 114.824219 37.296875 113.214844 36.738281 111.613281 C 40.898438 106.660156 43.757812 100.972656 45.886719 94.835938 C 46.722656 92.425781 47.480469 89.949219 47.988281 87.433594 C 48.949219 88.785156 49.847656 90.175781 50.6875 91.601562 Z M 57.015625 107.074219 C 54.386719 114.988281 48.550781 123.09375 41.820312 127.90625 C 41.25 125.84375 40.660156 123.796875 40.042969 121.761719 C 45.875 115.464844 51.382812 106.539062 53.941406 98.007812 C 55.214844 100.941406 56.242188 103.976562 57.015625 107.074219 Z M 58.019531 129.609375 C 54.890625 135.015625 50.667969 139.679688 45.644531 143.390625 C 45.5 142.734375 45.359375 142.078125 45.210938 141.425781 C 50.625 137.265625 55.207031 131.746094 58.507812 125.675781 C 58.394531 126.988281 58.230469 128.300781 58.019531 129.609375 Z M 4.027344 98.742188 C 12.074219 104.894531 22.1875 108.722656 32.257812 109.730469 C 32.589844 110.644531 32.921875 111.558594 33.246094 112.480469 C 23.652344 111.648438 12.136719 107.199219 4.3125 101.835938 C 4.195312 100.8125 4.097656 99.777344 4.027344 98.742188 Z M 58.714844 121.5625 C 55.597656 128.496094 50.738281 134.925781 44.804688 139.65625 C 44.28125 137.410156 43.738281 135.171875 43.167969 132.953125 C 49.425781 128.578125 54.847656 122.421875 58.472656 115.617188 C 58.65625 117.589844 58.738281 119.574219 58.714844 121.5625 Z M 58.117188 112.648438 C 54.753906 119.902344 49.226562 126.574219 42.726562 131.253906 C 42.578125 130.699219 42.433594 130.140625 42.285156 129.589844 C 48.789062 125.105469 54.554688 117.636719 57.671875 110.027344 C 57.839844 110.898438 57.988281 111.773438 58.117188 112.648438 Z M 39.484375 119.933594 C 39.308594 119.371094 39.132812 118.8125 38.953125 118.253906 C 43.847656 112.828125 47.621094 106.40625 50.125 99.542969 C 50.808594 97.667969 51.46875 95.761719 51.925781 93.816406 C 52.253906 94.433594 52.570312 95.058594 52.875 95.6875 C 50.765625 104.210938 45.339844 113.386719 39.484375 119.933594 Z M 44.335938 94.292969 C 42.378906 99.933594 39.792969 105.183594 36.09375 109.804688 C 35.835938 109.09375 35.578125 108.386719 35.316406 107.679688 C 39.125 103.039062 41.773438 97.582031 43.65625 91.863281 C 44.472656 89.390625 45.167969 86.8125 45.527344 84.207031 C 45.910156 84.671875 46.28125 85.140625 46.648438 85.617188 C 46.183594 88.574219 45.3125 91.480469 44.335938 94.292969 Z M 3.90625 96.558594 C 3.828125 94.484375 3.839844 92.398438 3.949219 90.308594 C 11.285156 95.527344 19.84375 98.976562 28.6875 100.636719 C 29.703125 103.066406 30.683594 105.523438 31.617188 108.007812 C 21.644531 106.855469 11.675781 102.871094 3.90625 96.558594 Z M 29.777344 94.128906 C 32.695312 87.738281 34.0625 80.742188 34.25 73.722656 C 34.808594 74.113281 35.359375 74.519531 35.902344 74.929688 C 35.253906 82.078125 33.59375 89.214844 30.46875 95.683594 C 30.242188 95.164062 30.007812 94.644531 29.777344 94.128906 Z M 28.859375 92.117188 C 27.980469 90.214844 27.074219 88.335938 26.140625 86.476562 C 27.613281 80.910156 28.054688 75.347656 27.511719 69.660156 C 29.28125 70.566406 30.988281 71.554688 32.625 72.621094 C 32.558594 79.289062 31.425781 85.96875 28.859375 92.117188 Z M 19.511719 81.617188 C 19.984375 82.476562 20.453125 83.339844 20.917969 84.210938 C 15.503906 82.988281 10.246094 80.667969 5.90625 77.230469 C 6.050781 76.660156 6.199219 76.089844 6.359375 75.519531 C 10.234375 78.40625 14.839844 80.386719 19.511719 81.617188 Z M 5.492188 78.980469 C 10.269531 82.597656 16.039062 84.96875 21.914062 86.097656 C 23.300781 88.777344 24.625 91.496094 25.894531 94.257812 C 18.175781 92.566406 10.941406 89.234375 4.472656 84.664062 C 4.730469 82.769531 5.070312 80.871094 5.492188 78.980469 Z M 26.730469 96.113281 C 27.132812 97.007812 27.523438 97.90625 27.914062 98.808594 C 19.351562 97.050781 11.101562 93.566406 4.074219 88.367188 C 4.125 87.75 4.183594 87.132812 4.25 86.511719 C 11.042969 91.179688 18.644531 94.519531 26.730469 96.113281 Z M 33.835938 114.175781 C 34.609375 116.421875 35.347656 118.6875 36.0625 120.96875 C 25.496094 120.996094 13.980469 117.25 5.875 110.566406 C 5.347656 108.410156 4.917969 106.21875 4.59375 104 C 12.789062 109.273438 24.316406 113.515625 33.835938 114.175781 Z M 36.570312 122.613281 C 36.761719 123.246094 36.949219 123.878906 37.136719 124.515625 C 26.746094 124.71875 16.054688 121.707031 7.417969 115.953125 C 7.117188 115.039062 6.832031 114.121094 6.570312 113.191406 C 14.957031 119.355469 26.234375 122.75 36.570312 122.613281 Z M 37.613281 126.148438 C 38.0625 127.695312 38.496094 129.25 38.917969 130.816406 C 29.59375 131.363281 18.792969 128.789062 10.742188 124.226562 C 9.972656 122.621094 9.261719 120.976562 8.613281 119.296875 C 8.507812 119.019531 8.402344 118.742188 8.296875 118.460938 C 17 123.730469 27.460938 126.433594 37.613281 126.148438 Z M 39.347656 132.4375 C 39.5 133.027344 39.65625 133.617188 39.808594 134.210938 C 30.960938 135.050781 21.410156 133.519531 13.507812 129.433594 C 12.996094 128.558594 12.5 127.671875 12.019531 126.769531 C 20.15625 130.828125 30.429688 133.027344 39.347656 132.4375 Z M 40.210938 135.824219 C 40.851562 138.394531 41.460938 140.988281 42.039062 143.59375 C 33.722656 143.6875 25.085938 141.257812 18.285156 136.480469 C 17.171875 135.046875 16.109375 133.5625 15.109375 132.023438 C 22.867188 135.4375 31.851562 136.660156 40.210938 135.824219 Z M 23.234375 142.113281 C 22.683594 141.558594 22.140625 140.992188 21.609375 140.414062 C 27.957031 143.726562 35.296875 145.371094 42.394531 145.238281 C 42.515625 145.796875 42.632812 146.359375 42.75 146.917969 C 36.109375 146.832031 29.179688 145.140625 23.234375 142.113281 Z M 44.066406 82.488281 C 43.816406 85.507812 43.035156 88.496094 42.097656 91.347656 C 40.378906 96.570312 38.007812 101.566406 34.644531 105.886719 C 33.589844 103.105469 32.484375 100.363281 31.324219 97.652344 C 34.773438 90.992188 36.65625 83.589844 37.433594 76.136719 C 39.828125 78.085938 42.042969 80.210938 44.066406 82.488281 Z M 16.628906 65.445312 C 16.839844 67.023438 16.933594 68.621094 16.914062 70.214844 C 15.703125 68.320312 14.457031 66.445312 13.171875 64.605469 C 14.34375 64.851562 15.496094 65.132812 16.628906 65.445312 Z M 9.78125 66.058594 C 11.007812 67.800781 12.203125 69.570312 13.363281 71.363281 C 11.71875 70.625 10.144531 69.738281 8.671875 68.675781 C 9.023438 67.800781 9.390625 66.925781 9.78125 66.058594 Z M 26.945312 145.542969 C 32.101562 147.488281 37.695312 148.539062 43.089844 148.566406 C 43.550781 150.816406 43.988281 153.078125 44.398438 155.351562 C 38.015625 153.3125 32.132812 149.929688 26.945312 145.542969 Z M 47.335938 151.644531 C 48.621094 150.796875 49.839844 149.859375 50.992188 148.847656 C 50 150.5 48.914062 152.117188 47.722656 153.703125 C 47.597656 153.015625 47.464844 152.332031 47.335938 151.644531 Z M 3.929688 182.289062 C 4.542969 184.179688 5.074219 186.089844 5.480469 188.027344 C 4.46875 186.988281 3.46875 185.976562 2.484375 185.003906 C 2.25 183.804688 1.945312 182.621094 1.597656 181.453125 C 2.378906 181.710938 3.15625 181.992188 3.929688 182.289062 Z M 8.292969 184.179688 C 9.164062 187.074219 9.804688 190.027344 10.210938 193.015625 C 9.308594 192.042969 8.414062 191.089844 7.527344 190.15625 C 7.179688 187.761719 6.605469 185.414062 5.90625 183.097656 C 6.707031 183.4375 7.5 183.800781 8.292969 184.179688 Z M 12.902344 186.628906 C 14.382812 190.496094 15.109375 194.609375 15.394531 198.746094 C 14.292969 197.503906 13.199219 196.28125 12.109375 195.085938 C 11.78125 191.738281 11.179688 188.425781 10.292969 185.183594 C 11.167969 185.644531 12.039062 186.125 12.902344 186.628906 Z M 17.863281 189.808594 C 19.972656 194.625 20.679688 199.695312 20.746094 204.9375 C 19.546875 203.519531 18.34375 202.121094 17.144531 200.742188 C 16.988281 196.417969 16.414062 192.085938 15.109375 187.96875 C 16.035156 188.558594 16.953125 189.171875 17.863281 189.808594 Z M 23.980469 194.566406 C 25.625 199.785156 25.914062 205.359375 25.636719 210.84375 C 24.558594 209.515625 23.476562 208.199219 22.386719 206.894531 C 22.460938 201.617188 22 196.496094 20.324219 191.605469 C 21.566406 192.550781 22.785156 193.539062 23.980469 194.566406 Z M 34.109375 204.988281 C 34.210938 205.117188 34.3125 205.246094 34.417969 205.375 C 35.214844 210.738281 34.988281 216.21875 34.03125 221.5625 C 33.113281 220.339844 32.175781 219.113281 31.230469 217.890625 C 31.976562 212.492188 32.027344 206.992188 31.195312 201.605469 C 32.195312 202.707031 33.167969 203.835938 34.109375 204.988281 Z M -7.554688 190.636719 C -2.710938 192.710938 2.417969 194.390625 7.585938 195.472656 C 8.796875 196.777344 10.019531 198.117188 11.246094 199.488281 C 4.910156 198.417969 -1.277344 196.535156 -7.175781 193.976562 C -7.339844 192.859375 -7.46875 191.746094 -7.554688 190.636719 Z M 1.703125 189.316406 C 2.976562 190.601562 4.269531 191.941406 5.578125 193.328125 C 1.046875 192.21875 -3.425781 190.65625 -7.660156 188.792969 C -7.699219 187.84375 -7.707031 186.898438 -7.683594 185.960938 C -4.640625 187.390625 -1.535156 188.507812 1.703125 189.316406 Z M 12.964844 201.417969 C 13.851562 202.425781 14.738281 203.441406 15.628906 204.472656 C 8.203125 203.667969 0.835938 202.082031 -6.105469 199.339844 C -6.394531 198.195312 -6.644531 197.046875 -6.859375 195.898438 C -0.511719 198.558594 6.152344 200.453125 12.964844 201.417969 Z M 17.179688 206.28125 C 18.28125 207.574219 19.378906 208.882812 20.472656 210.203125 C 11.839844 209.632812 3.355469 207.84375 -4.601562 204.355469 C -4.957031 203.34375 -5.277344 202.328125 -5.574219 201.308594 C 1.714844 204.042969 9.429688 205.5625 17.179688 206.28125 Z M 21.898438 211.929688 C 22.980469 213.25 24.054688 214.582031 25.117188 215.914062 C 15.742188 215.515625 6.398438 213.894531 -2.25 210.1875 C -2.816406 208.957031 -3.339844 207.71875 -3.824219 206.472656 C 4.363281 209.832031 13.066406 211.492188 21.898438 211.929688 Z M 26.460938 217.609375 C 27.554688 219 28.636719 220.390625 29.699219 221.785156 C 19.757812 221.828125 9.714844 220.417969 0.765625 216.023438 C 0.078125 214.828125 -0.570312 213.625 -1.183594 212.40625 C 7.601562 215.867188 17.03125 217.328125 26.460938 217.609375 Z M 2.277344 218.527344 C 11.253906 222.394531 21.167969 223.570312 30.941406 223.417969 C 31.964844 224.769531 32.96875 226.121094 33.953125 227.46875 C 24 227.613281 13.855469 226.304688 4.769531 222.238281 C 3.902344 221.023438 3.070312 219.785156 2.277344 218.527344 Z M 43.589844 219.488281 C 43.753906 223.855469 43.09375 228.195312 41.847656 232.390625 C 40.992188 231.144531 40.113281 229.886719 39.210938 228.621094 C 40.410156 224.085938 40.929688 219.292969 40.855469 214.558594 C 41.828125 216.175781 42.742188 217.820312 43.589844 219.488281 Z M 46.78125 226.699219 C 46.804688 230.25 46.175781 233.953125 45.203125 237.394531 C 44.5 236.316406 43.777344 235.222656 43.03125 234.121094 C 44.21875 230.464844 44.992188 226.6875 45.203125 222.871094 C 45.765625 224.136719 46.292969 225.414062 46.78125 226.699219 Z M 41.730469 238.644531 C 33.40625 239.195312 24.460938 238.355469 16.71875 235.449219 C 15.320312 234.222656 13.964844 232.941406 12.65625 231.613281 C 21.15625 234.609375 30.488281 235.941406 39.464844 235.257812 C 40.242188 236.398438 40.996094 237.53125 41.730469 238.644531 Z M 42.753906 240.222656 C 43.582031 241.511719 44.375 242.777344 45.128906 244.015625 C 38.933594 244.585938 32.773438 244.148438 26.714844 242.828125 C 24.453125 241.449219 22.261719 239.929688 20.152344 238.292969 C 27.398438 240.304688 35.34375 240.800781 42.753906 240.222656 Z M 31.113281 245.289062 C 36.054688 245.988281 41.050781 246.105469 46.066406 245.578125 C 46.484375 246.28125 46.886719 246.976562 47.277344 247.664062 C 43.417969 248.0625 39.464844 247.863281 35.605469 247.363281 C 34.085938 246.738281 32.585938 246.042969 31.113281 245.289062 Z M 46.375 239.214844 C 47.214844 236.546875 47.863281 233.683594 48.1875 230.820312 C 48.726562 232.582031 49.1875 234.359375 49.5625 236.140625 C 49.359375 238.238281 48.984375 240.304688 48.289062 242.289062 C 47.675781 241.28125 47.035156 240.253906 46.375 239.214844 Z M 39.097656 211.777344 C 39.4375 216.796875 39.089844 221.96875 37.953125 226.867188 C 37.105469 225.699219 36.242188 224.523438 35.367188 223.34375 C 36.402344 218.269531 36.816406 213.050781 36.371094 207.894531 C 37.316406 209.164062 38.226562 210.460938 39.097656 211.777344 Z M 29.125 199.40625 C 30.265625 204.878906 30.421875 210.507812 29.800781 216.058594 C 28.929688 214.949219 28.050781 213.839844 27.164062 212.734375 C 27.550781 207.347656 27.46875 201.835938 26.234375 196.589844 C 27.21875 197.5 28.183594 198.441406 29.125 199.40625 Z M -0.308594 180.851562 C -0.09375 181.515625 0.105469 182.183594 0.289062 182.859375 C -0.648438 181.957031 -1.570312 181.089844 -2.46875 180.265625 C -1.75 180.441406 -1.027344 180.640625 -0.308594 180.851562 Z M -0.691406 186.929688 C -3.050781 186.1875 -5.34375 185.273438 -7.605469 184.175781 C -7.53125 183.050781 -7.414062 181.933594 -7.25 180.824219 C -5.1875 182.625 -2.988281 184.675781 -0.691406 186.929688 Z M 6.699219 224.820312 C 15.675781 228.277344 25.511719 229.335938 35.132812 229.089844 C 36.246094 230.632812 37.332031 232.167969 38.382812 233.683594 C 28.8125 234.257812 18.875 232.5 10.078125 228.867188 C 9.015625 227.679688 7.992188 226.464844 7.011719 225.21875 C 6.90625 225.085938 6.800781 224.953125 6.699219 224.820312 Z M 41.71875 249.503906 C 43.875 249.558594 46.027344 249.476562 48.148438 249.21875 C 48.492188 249.847656 48.828125 250.46875 49.144531 251.074219 C 46.636719 250.734375 44.160156 250.203125 41.71875 249.503906 Z M 49.359375 244.070312 C 49.777344 243.078125 50.113281 242.0625 50.382812 241.027344 C 50.605469 242.855469 50.738281 244.6875 50.765625 246.511719 C 50.316406 245.710938 49.84375 244.898438 49.359375 244.070312 Z M 73.382812 238.332031 C 70.214844 240.574219 66.785156 242.277344 63.097656 243.519531 C 64.234375 241.886719 65.320312 240.207031 66.351562 238.480469 C 70.3125 237.226562 74.183594 234.980469 77.566406 232.269531 C 76.363281 234.386719 74.972656 236.417969 73.382812 238.332031 Z M 57.289062 245.296875 C 56.136719 243.285156 55.28125 241.132812 54.640625 238.90625 C 54.703125 237.792969 54.78125 236.703125 54.871094 235.628906 C 55.800781 238.433594 56.953125 241.140625 58.496094 243.746094 C 58.101562 244.269531 57.699219 244.785156 57.289062 245.296875 Z M 83.351562 194.34375 C 83.5 195.21875 83.632812 196.109375 83.746094 197.015625 C 82.632812 198.496094 81.4375 199.914062 80.128906 201.214844 C 80.398438 199.855469 80.648438 198.496094 80.875 197.144531 C 81.769531 196.277344 82.59375 195.335938 83.351562 194.34375 Z M 84.152344 208.253906 C 81.902344 211.046875 79.355469 213.5 76.457031 215.582031 C 76.925781 214.105469 77.367188 212.625 77.777344 211.132812 C 80.148438 209.445312 82.3125 207.433594 84.234375 205.234375 C 84.230469 206.230469 84.203125 207.238281 84.152344 208.253906 Z M 69.890625 231.992188 C 74.078125 229.871094 77.820312 227.234375 81.214844 224.097656 C 80.734375 225.515625 80.1875 226.917969 79.574219 228.292969 C 76.199219 231.609375 72.015625 234.546875 67.628906 236.28125 C 68.414062 234.875 69.167969 233.445312 69.890625 231.992188 Z M 84.191406 202.710938 C 82.503906 204.839844 80.585938 206.824219 78.46875 208.542969 C 78.859375 207.023438 79.21875 205.5 79.550781 203.976562 C 81.183594 202.59375 82.648438 201.03125 83.992188 199.367188 C 84.089844 200.464844 84.152344 201.582031 84.191406 202.710938 Z M 76.3125 201.9375 C 75.195312 197.621094 74.667969 193.175781 74.84375 188.699219 C 75.226562 188.339844 75.613281 187.992188 76 187.652344 C 76.066406 190.707031 76.5 193.753906 77.300781 196.703125 C 77.007812 198.445312 76.679688 200.191406 76.3125 201.9375 Z M 75.574219 205.273438 C 75.21875 206.78125 74.839844 208.285156 74.429688 209.78125 C 72.394531 204.339844 71.394531 198.515625 70.96875 192.71875 C 71.6875 191.886719 72.421875 191.09375 73.167969 190.332031 C 73.160156 195.414062 74.015625 200.4375 75.574219 205.273438 Z M 73.695312 212.371094 C 73.21875 213.976562 72.710938 215.574219 72.171875 217.160156 C 69.394531 210.996094 67.765625 204.410156 67.152344 197.65625 C 67.90625 196.5625 68.675781 195.519531 69.46875 194.523438 C 70.039062 200.636719 71.277344 206.734375 73.695312 212.371094 Z M 71.390625 219.371094 C 70.824219 220.9375 70.222656 222.484375 69.585938 224.015625 C 66.492188 217.15625 64.488281 209.996094 64.191406 202.4375 C 64.691406 201.539062 65.203125 200.671875 65.730469 199.828125 C 66.550781 206.617188 68.398438 213.214844 71.390625 219.371094 Z M 68.71875 226.050781 C 68.230469 227.164062 67.722656 228.261719 67.195312 229.351562 C 63.984375 222.890625 61.785156 215.777344 61.179688 208.601562 C 61.675781 207.441406 62.191406 206.316406 62.726562 205.230469 C 63.398438 212.496094 65.570312 219.414062 68.71875 226.050781 Z M 66.285156 231.1875 C 65.742188 232.253906 65.179688 233.304688 64.601562 234.34375 C 61.410156 228.609375 59.449219 222.363281 58.546875 215.859375 C 58.972656 214.476562 59.421875 213.136719 59.898438 211.84375 C 60.878906 218.570312 63.15625 225.175781 66.285156 231.1875 Z M 63.652344 236 C 63.113281 236.917969 62.558594 237.824219 61.988281 238.714844 C 59.289062 233.917969 57.480469 228.832031 56.628906 223.386719 C 56.898438 222.082031 57.191406 220.8125 57.507812 219.574219 C 58.660156 225.347656 60.667969 230.882812 63.652344 236 Z M 60.976562 240.261719 C 60.511719 240.949219 60.042969 241.628906 59.558594 242.300781 C 57.597656 238.828125 56.324219 235.179688 55.316406 231.355469 C 55.46875 230.121094 55.640625 228.910156 55.828125 227.726562 C 56.925781 232.121094 58.652344 236.285156 60.976562 240.261719 Z M 82.210938 220.820312 C 78.898438 224.253906 75.226562 227.140625 71.097656 229.476562 C 71.746094 228.082031 72.363281 226.667969 72.953125 225.242188 C 76.738281 223 80.101562 220.210938 83.089844 217.023438 C 82.839844 218.292969 82.546875 219.5625 82.210938 220.820312 Z M 83.9375 211.207031 C 83.847656 212.128906 83.738281 213.054688 83.605469 213.980469 C 80.785156 217.292969 77.601562 220.238281 73.992188 222.648438 C 74.566406 221.15625 75.105469 219.652344 75.621094 218.136719 C 78.746094 216.144531 81.507812 213.761719 83.953125 211.03125 C 83.945312 211.089844 83.941406 211.148438 83.9375 211.207031 Z M 82.058594 188.554688 C 82.382812 189.691406 82.671875 190.878906 82.933594 192.109375 C 82.4375 192.839844 81.90625 193.550781 81.335938 194.230469 C 81.617188 192.328125 81.859375 190.433594 82.058594 188.554688 Z M 78.007812 192.03125 C 77.730469 190.125 77.609375 188.195312 77.636719 186.269531 C 78.003906 185.972656 78.371094 185.683594 78.738281 185.402344 C 78.550781 187.585938 78.304688 189.800781 78.007812 192.03125 Z M 54.425781 247.03125 C 54.445312 245.800781 54.460938 244.566406 54.472656 243.335938 C 54.964844 244.472656 55.53125 245.582031 56.179688 246.648438 C 55.613281 247.328125 55.03125 247.992188 54.441406 248.644531 C 54.433594 248.101562 54.425781 247.566406 54.425781 247.03125 Z M 61.496094 245.738281 C 64.085938 245 66.5625 244.058594 68.921875 242.894531 C 65.980469 245.449219 62.550781 247.660156 58.570312 249.410156 C 59.582031 248.226562 60.550781 246.996094 61.496094 245.738281 Z M 61.496094 245.738281 " fill-opacity="1" fill-rule="nonzero"/></g><path fill="#f3eee4" d="M 321.792969 135.230469 C 307.929688 129.851562 296.894531 117.71875 292.886719 103.449219 C 288.882812 89.179688 292 73.105469 301.054688 61.347656 C 310.816406 65.351562 319.757812 71.59375 326.476562 79.707031 C 333.195312 87.816406 337.339844 98.277344 336.753906 108.773438 C 336.164062 119.273438 330.984375 130.058594 321.792969 135.230469 Z M 321.792969 135.230469 " fill-opacity="1" fill-rule="nonzero"/><path fill="#f3eee4" d="M 320.839844 187.28125 C 315.679688 177.644531 314.625 165.90625 317.988281 155.507812 C 321.421875 144.886719 329.300781 135.90625 339.058594 130.414062 C 348.8125 124.921875 360.328125 122.824219 371.496094 123.738281 C 372.328125 133.316406 371.8125 142.882812 369.019531 152.082031 C 366.226562 161.285156 361.167969 169.90625 353.925781 176.261719 C 344.992188 184.101562 324.132812 188.441406 320.839844 187.28125 Z M 320.839844 187.28125 " fill-opacity="1" fill-rule="nonzero"/><path fill="#f3eee4" d="M 315.453125 271.523438 C 317.507812 262.363281 319.742188 253.199219 323.292969 244.503906 C 326.84375 235.8125 331.777344 227.550781 338.628906 221.101562 C 345.476562 214.65625 354.359375 210.113281 363.761719 209.464844 C 364.59375 213.777344 363.847656 218.460938 362.457031 222.628906 C 361.066406 226.796875 358.933594 230.675781 356.691406 234.457031 C 351.84375 242.632812 346.394531 250.535156 339.589844 257.183594 C 332.789062 263.835938 324.65625 269.035156 315.453125 271.523438 Z M 315.453125 271.523438 " fill-opacity="1" fill-rule="nonzero"/><g clip-path="url(#82eee8bfb0)"><path fill="#c78045" d="M 363.894531 207.574219 C 340.839844 205.101562 321.359375 237.082031 316.804688 260.003906 C 316.238281 237.078125 318.953125 206.300781 322.082031 189.472656 C 375.191406 189.078125 373.859375 132.589844 372.363281 123.273438 C 372.253906 122.582031 371.675781 122.0625 370.976562 122.019531 C 350.296875 120.738281 333.386719 128.683594 323.5625 141.027344 C 323.503906 139.351562 323.40625 137.53125 323.265625 135.59375 C 349.152344 118.273438 340.746094 76.308594 302.085938 60.484375 C 301.539062 60.261719 300.910156 60.378906 300.480469 60.785156 C 276.332031 83.707031 295.390625 129.714844 320.3125 136.214844 C 320.550781 139.652344 320.652344 142.695312 320.617188 145.191406 C 313.003906 157.40625 311.679688 172.941406 319.28125 188.15625 C 315.597656 206.980469 312.375 244.859375 314.386719 272.128906 C 314.488281 273.511719 316.261719 274.011719 317.085938 272.90625 C 317.289062 272.910156 317.5 272.875 317.695312 272.792969 C 357.445312 256.132812 365.28125 220.507812 365.234375 209.054688 C 365.230469 208.292969 364.65625 207.65625 363.894531 207.574219 Z M 317.394531 163.703125 C 318.675781 167.542969 320.613281 171.066406 323.28125 174.277344 C 322.792969 175.546875 322.339844 176.824219 321.914062 178.117188 C 319.847656 175.832031 318.359375 173.191406 317.316406 170.335938 C 317.15625 168.09375 317.1875 165.878906 317.394531 163.703125 Z M 329.464844 167.628906 C 339.714844 170.804688 351.359375 169.652344 361.394531 165.832031 C 360.546875 167.25 359.621094 168.632812 358.605469 169.96875 C 348.757812 173.5 337.890625 173.667969 327.777344 171.226562 C 328.3125 170.015625 328.875 168.816406 329.464844 167.628906 Z M 338.09375 132.324219 C 337.550781 137.363281 337.75 142.5 339.144531 147.378906 C 338.382812 148.300781 337.636719 149.238281 336.902344 150.1875 C 335.109375 145.152344 334.347656 139.746094 334.871094 134.425781 C 335.90625 133.6875 336.980469 132.988281 338.09375 132.324219 Z M 343.269531 129.640625 C 342.074219 134.199219 341.824219 138.859375 342.484375 143.53125 C 341.714844 144.378906 340.957031 145.234375 340.214844 146.105469 C 339.007812 141.34375 338.945312 136.351562 339.5625 131.480469 C 340.757812 130.824219 341.996094 130.210938 343.269531 129.640625 Z M 347.964844 127.8125 C 346.730469 131.679688 346.011719 135.703125 346.085938 139.761719 C 344.773438 141.078125 344.191406 141.695312 343.695312 142.226562 C 343.207031 137.753906 343.589844 133.304688 344.875 128.957031 C 345.882812 128.546875 346.910156 128.164062 347.964844 127.8125 Z M 352.457031 126.523438 C 351.414062 129.449219 350.699219 132.535156 350.445312 135.625 C 349.429688 136.535156 348.433594 137.464844 347.453125 138.414062 C 347.550781 134.632812 348.339844 130.894531 349.566406 127.304688 C 350.511719 127.019531 351.476562 126.757812 352.457031 126.523438 Z M 356.238281 125.742188 C 355.335938 127.921875 354.746094 129.84375 354.398438 132.28125 C 353.570312 132.941406 352.757812 133.617188 351.957031 134.304688 C 352.316406 131.523438 353.046875 128.769531 354.042969 126.160156 C 354.765625 126.007812 355.5 125.867188 356.238281 125.742188 Z M 360.316406 125.1875 C 358.519531 130.121094 360.621094 127.511719 355.996094 131.035156 C 356.390625 129.097656 356.984375 127.425781 357.824219 125.492188 C 358.644531 125.375 359.476562 125.273438 360.316406 125.1875 Z M 364.324219 128.953125 C 366.160156 129.003906 368.019531 128.886719 369.816406 128.496094 C 369.84375 129.179688 369.863281 129.910156 369.871094 130.683594 C 366.730469 131.390625 363.4375 131.773438 360.207031 131.648438 C 361.546875 130.703125 362.921875 129.804688 364.324219 128.953125 Z M 366.234375 155.097656 C 357.484375 159.070312 344.976562 159.582031 335.902344 156.667969 C 336.667969 155.546875 337.457031 154.4375 338.265625 153.347656 C 346.953125 155.734375 358.53125 155.53125 367.101562 152.257812 C 366.835938 153.203125 366.550781 154.152344 366.234375 155.097656 Z M 367.539062 150.621094 C 359.316406 154.085938 347.839844 154.433594 339.148438 152.179688 C 339.988281 151.085938 340.847656 150.011719 341.730469 148.953125 C 343.558594 149.480469 345.398438 149.96875 347.285156 150.222656 C 353.386719 151.042969 361.714844 150.605469 368.03125 148.53125 C 367.878906 149.226562 367.714844 149.921875 367.539062 150.621094 Z M 368.359375 146.984375 C 361.925781 149.308594 351.367188 150.265625 342.691406 147.816406 C 343.800781 146.523438 344.941406 145.261719 346.113281 144.023438 C 352.824219 145.617188 361.988281 145.632812 368.925781 143.753906 C 368.761719 144.8125 368.574219 145.894531 368.359375 146.984375 Z M 349.792969 140.3125 C 356.292969 141.347656 362.808594 141.3125 369.347656 140.59375 C 369.285156 141.152344 369.214844 141.714844 369.140625 142.28125 C 362.609375 144.195312 353.828125 144.292969 347.210938 142.878906 C 348.054688 142.011719 348.917969 141.152344 349.792969 140.3125 Z M 358.488281 132.894531 C 362.265625 133.246094 366.164062 132.878906 369.871094 132.070312 C 369.863281 132.90625 369.839844 133.78125 369.804688 134.6875 C 364.976562 135.605469 359.867188 136.035156 354.933594 135.699219 C 356.09375 134.734375 357.277344 133.796875 358.488281 132.894531 Z M 353.472656 136.941406 C 358.832031 137.460938 364.441406 137.0625 369.734375 136.082031 C 369.675781 137.09375 369.597656 138.136719 369.492188 139.214844 C 363.324219 139.910156 357.179688 139.992188 351.046875 139.125 C 351.84375 138.382812 352.652344 137.65625 353.472656 136.941406 Z M 335.925781 151.476562 C 335.285156 152.339844 334.65625 153.210938 334.042969 154.09375 C 331.433594 149.046875 330.214844 144.125 330.0625 138.371094 C 331.125 137.371094 332.242188 136.414062 333.417969 135.507812 C 333.074219 140.925781 333.992188 146.394531 335.925781 151.476562 Z M 335.117188 157.839844 C 344.125 160.84375 356.554688 160.519531 365.632812 156.835938 C 365.304688 157.738281 364.949219 158.640625 364.570312 159.535156 C 355.160156 163.367188 342.621094 164.269531 332.917969 161.335938 C 333.625 160.152344 334.359375 158.988281 335.117188 157.839844 Z M 332.207031 162.535156 C 341.800781 165.53125 354.171875 164.839844 363.792969 161.292969 C 363.375 162.183594 362.933594 163.070312 362.460938 163.949219 C 352.4375 168.117188 340.53125 169.570312 330.089844 166.402344 C 330.761719 165.097656 331.472656 163.808594 332.207031 162.535156 Z M 334.027344 185.238281 C 330.445312 185.371094 326.761719 184.679688 323.46875 183.363281 C 323.710938 182.46875 323.96875 181.578125 324.238281 180.695312 C 329.949219 182.746094 336.085938 183.417969 342.101562 182.746094 C 339.628906 183.773438 336.945312 184.617188 334.027344 185.238281 Z M 346.460938 180.621094 C 339.238281 182.300781 331.613281 181.914062 324.648438 179.398438 C 324.984375 178.363281 325.339844 177.335938 325.714844 176.3125 C 333.363281 179.085938 343.082031 179.332031 351.335938 177.371094 C 349.832031 178.546875 348.210938 179.636719 346.460938 180.621094 Z M 323.851562 172.824219 C 320.90625 169.101562 318.953125 164.957031 317.863281 160.375 C 318.203125 158.542969 318.671875 156.75 319.265625 155.003906 C 320.21875 160.164062 322.296875 164.96875 325.347656 169.324219 C 324.824219 170.480469 324.324219 171.648438 323.851562 172.824219 Z M 323.128906 184.691406 C 324.757812 185.328125 326.472656 185.824219 328.226562 186.148438 C 326.457031 186.332031 324.617188 186.445312 322.699219 186.476562 C 322.832031 185.878906 322.976562 185.285156 323.128906 184.691406 Z M 353.789062 175.292969 C 345.273438 177.976562 334.480469 178.046875 326.195312 175.046875 C 326.527344 174.1875 326.871094 173.335938 327.230469 172.488281 C 336.96875 174.882812 347.402344 174.902344 357.023438 171.929688 C 356.023438 173.097656 354.945312 174.222656 353.789062 175.292969 Z M 369.746094 127.121094 C 368.761719 127.351562 367.757812 127.488281 366.746094 127.554688 C 367.707031 127.027344 368.679688 126.523438 369.667969 126.042969 C 369.695312 126.382812 369.722656 126.742188 369.746094 127.121094 Z M 360.984375 127.519531 C 361.222656 126.6875 361.507812 125.867188 361.820312 125.054688 C 363 124.964844 364.191406 124.90625 365.402344 124.882812 C 363.898438 125.707031 362.425781 126.589844 360.984375 127.519531 Z M 328.75 139.664062 C 329.058594 145.339844 330.429688 150.269531 333.171875 155.363281 C 332.421875 156.472656 331.695312 157.59375 330.996094 158.734375 C 328.132812 153.53125 326.808594 147.902344 326.71875 141.902344 C 327.367188 141.132812 328.042969 140.386719 328.75 139.664062 Z M 325.40625 143.527344 C 325.710938 149.417969 327.21875 154.945312 330.183594 160.066406 C 329.546875 161.144531 328.925781 162.230469 328.328125 163.328125 C 325.332031 158.328125 323.554688 152.894531 322.980469 147.070312 C 323.726562 145.851562 324.535156 144.671875 325.40625 143.527344 Z M 297.691406 68.816406 C 300.496094 71.992188 303.753906 74.929688 307.550781 76.847656 C 308.113281 78.238281 308.65625 79.660156 309.179688 81.109375 C 304.292969 78.742188 299.972656 75.316406 296.179688 71.4375 C 296.640625 70.542969 297.140625 69.671875 297.691406 68.816406 Z M 299.523438 66.25 C 301.160156 68.054688 303.003906 69.730469 305.015625 71.101562 C 305.597656 72.3125 306.164062 73.558594 306.710938 74.839844 C 303.582031 72.964844 300.859375 70.390625 298.476562 67.652344 C 298.808594 67.175781 299.160156 66.710938 299.523438 66.25 Z M 332.324219 92.898438 C 330.175781 99.796875 325.738281 105.8125 319.84375 109.984375 C 319.609375 108.75 319.367188 107.503906 319.109375 106.257812 C 324.386719 101.242188 328.460938 93.597656 329.980469 87.949219 C 330.871094 89.558594 331.65625 91.214844 332.324219 92.898438 Z M 333.632812 96.726562 C 330.839844 102.949219 326.035156 108.851562 320.316406 112.578125 C 320.25 112.203125 320.183594 111.828125 320.113281 111.453125 C 326.035156 107.421875 330.601562 101.625 333.070312 94.929688 C 333.273438 95.527344 333.460938 96.125 333.632812 96.726562 Z M 332.699219 119.800781 C 329.980469 123.386719 326.511719 126.339844 322.621094 128.613281 C 322.574219 128.152344 322.519531 127.691406 322.46875 127.226562 C 326.738281 124.5625 330.796875 121.011719 333.769531 116.820312 C 333.464844 117.832031 333.109375 118.824219 332.699219 119.800781 Z M 294.921875 103.964844 C 301.019531 109.550781 309.445312 113.207031 317.570312 114.085938 C 317.871094 115.8125 318.144531 117.519531 318.398438 119.199219 C 310.582031 118.679688 302.714844 115.132812 297.121094 109.667969 C 296.28125 107.792969 295.554688 105.910156 294.921875 103.964844 Z M 292.5625 92.835938 C 298.855469 98.636719 307.039062 103.082031 315.601562 103.945312 C 315.992188 105.742188 316.359375 107.535156 316.703125 109.316406 C 308.027344 108.015625 298.773438 103.25 293.089844 96.667969 C 292.863281 95.394531 292.6875 94.117188 292.5625 92.835938 Z M 316.96875 110.726562 C 317.09375 111.382812 317.210938 112.039062 317.328125 112.691406 C 308.796875 111.675781 299.972656 107.523438 294.117188 101.257812 C 293.933594 100.582031 293.765625 99.902344 293.609375 99.21875 C 299.65625 105.277344 308.605469 109.578125 316.96875 110.726562 Z M 318.601562 120.570312 C 318.667969 121.035156 318.734375 121.496094 318.796875 121.957031 C 311.734375 121.179688 304.816406 118.003906 299.132812 113.71875 C 298.96875 113.425781 298.808594 113.128906 298.652344 112.828125 C 304.28125 117.320312 311.472656 120.160156 318.601562 120.570312 Z M 334.730469 112.636719 C 331.996094 117.984375 327.320312 122.492188 322.289062 125.730469 C 322.109375 124.277344 321.917969 122.792969 321.703125 121.277344 C 326.839844 118.683594 331.769531 114.082031 335.101562 109.144531 C 335.039062 110.316406 334.914062 111.484375 334.730469 112.636719 Z M 335.144531 106.515625 C 332.082031 111.816406 326.933594 116.996094 321.496094 119.859375 C 321.421875 119.34375 321.34375 118.828125 321.265625 118.308594 C 326.910156 115.152344 331.941406 110.632812 335.078125 104.976562 C 335.113281 105.492188 335.132812 106.003906 335.144531 106.515625 Z M 334.832031 102.445312 C 332.027344 108.613281 326.894531 113.503906 321.039062 116.875 C 320.890625 115.929688 320.730469 114.980469 320.566406 114.023438 C 326.25 110.472656 331.109375 104.84375 334.164062 98.777344 C 334.445312 99.996094 334.667969 101.222656 334.832031 102.445312 Z M 318.785156 104.679688 C 318.667969 104.128906 318.550781 103.582031 318.429688 103.03125 C 322.789062 98.265625 326.933594 91.441406 328.113281 84.894531 C 328.410156 85.339844 328.703125 85.792969 328.984375 86.246094 C 327.980469 91.191406 324.160156 99.296875 318.785156 104.679688 Z M 318.066406 101.398438 C 317.695312 99.769531 317.308594 98.144531 316.902344 96.519531 C 320.433594 91.152344 322.921875 83.632812 323.570312 79.058594 C 324.75 80.394531 325.882812 81.796875 326.972656 83.277344 C 326.273438 89.667969 322.339844 96.503906 318.066406 101.398438 Z M 316.441406 94.707031 C 316.25 93.984375 316.058594 93.261719 315.863281 92.542969 C 318.242188 87.902344 320.496094 81.789062 321.144531 76.472656 C 321.550781 76.878906 321.953125 77.296875 322.351562 77.722656 C 322.03125 81.605469 319.84375 89.121094 316.441406 94.707031 Z M 315.316406 90.582031 C 314.570312 87.949219 313.769531 85.351562 312.914062 82.820312 C 314.457031 79.316406 315.457031 75.523438 315.753906 71.707031 C 317.1875 72.820312 318.570312 74.003906 319.898438 75.261719 C 319.511719 80.164062 317.53125 85.949219 315.316406 90.582031 Z M 312.242188 80.878906 C 312.101562 80.480469 311.960938 80.082031 311.816406 79.6875 C 312.964844 76.632812 313.65625 73.492188 313.765625 70.226562 C 313.996094 70.390625 314.222656 70.554688 314.453125 70.722656 C 314.285156 74.179688 313.503906 77.636719 312.242188 80.878906 Z M 311.070312 77.691406 C 307.875 69.34375 309.742188 76.445312 309.773438 67.628906 C 310.671875 68.164062 311.550781 68.71875 312.417969 69.296875 C 312.417969 72.191406 311.9375 74.976562 311.070312 77.691406 Z M 308.207031 70.882812 C 307.128906 68.554688 307.738281 70.496094 307.710938 66.449219 C 307.941406 66.578125 308.171875 66.703125 308.402344 66.835938 C 308.433594 68.183594 308.378906 69.542969 308.207031 70.882812 Z M 309.816406 82.902344 C 309.988281 83.402344 310.15625 83.902344 310.324219 84.40625 C 304.527344 82.125 299.363281 78.320312 295.058594 73.855469 C 295.214844 73.480469 295.378906 73.105469 295.550781 72.734375 C 299.6875 76.902344 304.429688 80.53125 309.816406 82.902344 Z M 294.519531 75.25 C 299.128906 79.917969 304.664062 83.835938 310.863281 86.054688 C 311.40625 87.742188 311.921875 89.453125 312.414062 91.179688 C 305.046875 89.222656 298.273438 84.128906 293.589844 78.230469 C 293.855469 77.222656 294.164062 76.230469 294.519531 75.25 Z M 312.839844 92.683594 C 313.101562 93.632812 313.355469 94.582031 313.601562 95.539062 C 305.65625 93.710938 297.875 87.976562 292.828125 81.871094 C 292.933594 81.207031 293.054688 80.550781 293.191406 79.894531 C 298.1875 85.859375 305.242188 90.894531 312.839844 92.683594 Z M 313.980469 97.011719 C 314.242188 98.046875 314.492188 99.082031 314.738281 100.121094 C 306.398438 99.097656 297.792969 93.589844 292.34375 87.371094 C 292.371094 86.132812 292.449219 84.902344 292.585938 83.683594 C 297.964844 89.808594 305.929688 95.367188 313.980469 97.011719 Z M 315.0625 101.527344 C 315.140625 101.867188 315.21875 102.207031 315.296875 102.546875 C 306.683594 101.554688 298.511719 96.8125 292.40625 90.808594 C 292.378906 90.335938 292.359375 89.863281 292.347656 89.390625 C 298.136719 95.484375 306.761719 100.664062 315.0625 101.527344 Z M 318.984375 123.339844 C 319.160156 124.667969 319.324219 125.972656 319.472656 127.25 C 313.703125 126.546875 308.054688 124.09375 303.496094 120.457031 C 302.546875 119.210938 301.644531 117.90625 300.792969 116.550781 C 306.246094 120.140625 312.566406 122.699219 318.984375 123.339844 Z M 319.628906 128.632812 C 319.65625 128.90625 319.6875 129.179688 319.714844 129.453125 C 315.511719 128.953125 311.449219 127.414062 307.757812 125.300781 C 304.644531 122.246094 309.695312 127.53125 319.628906 128.632812 Z M 322.976562 132.132812 C 322.917969 131.464844 322.851562 130.78125 322.777344 130.089844 C 325.378906 128.625 327.804688 126.867188 329.972656 124.839844 C 328.152344 127.535156 325.832031 130.003906 322.976562 132.132812 Z M 306.328125 65.71875 C 306.34375 66.179688 306.351562 66.640625 306.34375 67.101562 C 306.003906 66.457031 305.664062 65.824219 305.316406 65.207031 C 305.65625 65.375 305.992188 65.546875 306.328125 65.71875 Z M 301.257812 64.242188 C 302.070312 65.535156 302.855469 66.898438 303.613281 68.328125 C 302.46875 67.359375 301.394531 66.300781 300.402344 65.191406 C 300.679688 64.871094 300.964844 64.554688 301.257812 64.242188 Z M 311.835938 128.785156 C 314.414062 129.816406 317.109375 130.535156 319.855469 130.832031 C 319.929688 131.582031 320 132.316406 320.0625 133.039062 C 317.207031 132.15625 314.441406 130.699219 311.835938 128.785156 Z M 321.847656 149.050781 C 322.648438 154.652344 324.558594 159.886719 327.585938 164.722656 C 327.042969 165.765625 326.515625 166.824219 326.011719 167.886719 C 322.878906 163.203125 320.886719 158.003906 320.253906 152.394531 C 320.730469 151.257812 321.265625 150.140625 321.847656 149.050781 Z M 317.898438 174.855469 C 318.867188 176.558594 320.039062 178.152344 321.441406 179.597656 C 321.0625 180.828125 320.707031 182.066406 320.382812 183.316406 C 319.242188 180.488281 318.421875 177.65625 317.898438 174.855469 Z M 350.664062 242.589844 C 350.078125 231.816406 352.566406 220.167969 357.652344 210.785156 C 358.394531 210.648438 359.136719 210.546875 359.882812 210.492188 C 356.460938 218.53125 355.003906 227.167969 354.671875 235.863281 C 353.507812 238.085938 352.175781 240.339844 350.664062 242.589844 Z M 353.597656 211.914062 C 354.363281 211.628906 355.132812 211.382812 355.90625 211.175781 C 350.8125 221.09375 348.476562 233.285156 349.421875 244.378906 C 348.558594 245.585938 347.640625 246.785156 346.664062 247.980469 C 345.960938 236.1875 348.273438 222.25 353.597656 211.914062 Z M 341.453125 253.695312 C 340.304688 254.824219 339.097656 255.941406 337.828125 257.035156 C 335.90625 244.472656 337.574219 229.804688 343.074219 218.402344 C 344.28125 217.363281 345.511719 216.402344 346.769531 215.539062 C 341.636719 227.320312 338.839844 241.027344 341.453125 253.695312 Z M 340.535156 220.757812 C 335.867188 232.164062 334.621094 246.109375 336.609375 258.058594 C 335.519531 258.957031 334.382812 259.835938 333.203125 260.699219 C 329.242188 244.851562 336.082031 225.570312 338.109375 223.308594 C 338.902344 222.421875 339.710938 221.574219 340.535156 220.757812 Z M 328.726562 263.734375 C 326.417969 254.992188 327.144531 242.4375 330.695312 233.269531 C 331.992188 231.1875 333.375 229.183594 334.824219 227.285156 C 330.824219 237.941406 329.222656 251.007812 332.015625 261.550781 C 330.953125 262.296875 329.859375 263.023438 328.726562 263.734375 Z M 324.371094 266.28125 C 322.667969 259.164062 323.390625 250.296875 325.613281 242.730469 C 326.257812 241.328125 326.941406 239.941406 327.65625 238.574219 C 325.589844 247.199219 325.5 257.191406 327.519531 264.480469 C 326.5 265.09375 325.449219 265.695312 324.371094 266.28125 Z M 320.617188 268.203125 C 319.9375 265.230469 319.800781 262.105469 320.066406 258.992188 C 320.722656 256.042969 321.585938 253.046875 322.636719 250.066406 C 321.796875 255.882812 321.855469 261.863281 323.132812 266.945312 C 322.3125 267.371094 321.472656 267.792969 320.617188 268.203125 Z M 318.878906 266.253906 C 318.996094 267.113281 319.15625 267.960938 319.359375 268.796875 C 319.128906 268.902344 318.894531 269.007812 318.664062 269.113281 C 318.707031 268.171875 318.777344 267.21875 318.878906 266.253906 Z M 342.613281 252.527344 C 340.234375 239.695312 343.441406 225.859375 348.867188 214.195312 C 349.796875 213.644531 350.738281 213.152344 351.6875 212.710938 C 346.554688 223.515625 344.449219 237.695312 345.402344 249.480469 C 344.519531 250.503906 343.589844 251.519531 342.613281 252.527344 Z M 356.207031 232.761719 C 356.753906 225.089844 358.28125 217.515625 361.394531 210.429688 C 361.664062 210.429688 361.933594 210.433594 362.207031 210.445312 C 361.976562 215.417969 360.429688 223.679688 356.207031 232.761719 Z M 356.207031 232.761719 " fill-opacity="1" fill-rule="nonzero"/></g><path fill="#8aa8ab" d="M 111.101562 122.914062 C 116.117188 129.589844 117.273438 138.757812 118.839844 146.726562 C 121.984375 162.753906 123.75 179.105469 125.578125 195.335938 C 134.585938 195.109375 167.734375 195.5625 184.320312 195.167969 L 184.320312 194.914062 C 196.28125 195.722656 239.097656 195.074219 249.53125 195.335938 C 251.359375 179.105469 253.125 162.753906 256.269531 146.726562 C 257.835938 138.757812 258.992188 129.589844 264.007812 122.914062 C 270.597656 114.140625 282.460938 111.644531 292.820312 113.625 C 292.121094 104.726562 292.0625 96.359375 288.546875 87.929688 C 276.546875 59.148438 247.730469 59.683594 221.34375 59.898438 C 209 60 196.664062 59.855469 184.320312 60.019531 L 184.320312 59.960938 C 174.136719 59.902344 163.953125 59.984375 153.765625 59.898438 C 127.378906 59.683594 98.5625 59.148438 86.5625 87.929688 C 83.046875 96.359375 82.988281 104.726562 82.289062 113.625 C 92.648438 111.644531 104.511719 114.140625 111.101562 122.914062 Z M 111.101562 122.914062 " fill-opacity="1" fill-rule="nonzero"/><path fill="#8aa8ab" d="M 257.851562 208.949219 C 231.78125 208.234375 205.6875 208.488281 179.605469 208.332031 C 179.605469 208.351562 179.605469 208.371094 179.605469 208.386719 C 158.820312 208.425781 138.03125 208.378906 117.257812 208.949219 C 108.25 209.195312 97.511719 208.015625 88.785156 210.824219 C 84.511719 220.359375 86.28125 231.054688 93.976562 238.359375 C 103.792969 246.722656 118.066406 246.132812 130.136719 246.140625 C 148.1875 246.148438 166.261719 246.179688 184.320312 246.007812 L 184.320312 245.9375 C 204.53125 246.183594 224.769531 246.152344 244.972656 246.140625 C 257.042969 246.132812 271.316406 246.722656 281.132812 238.359375 C 288.828125 231.054688 290.597656 220.359375 286.324219 210.824219 C 277.597656 208.015625 266.859375 209.195312 257.851562 208.949219 Z M 257.851562 208.949219 " fill-opacity="1" fill-rule="nonzero"/><path fill="#c78045" d="M 314.484375 170.179688 C 314.40625 155.933594 316.03125 129.648438 305.390625 119.445312 C 296.007812 110.449219 280.835938 109.746094 269.890625 117.941406 C 254.25 129.652344 253.390625 161.214844 249.230469 196.226562 C 249.886719 196.148438 250.539062 195.925781 251.195312 195.992188 C 260.351562 196.925781 270.488281 197.03125 278.484375 202.164062 C 290.289062 209.738281 292.03125 228.253906 281.25 236.898438 C 267.957031 247.550781 250.863281 246.203125 234.75 245.933594 C 215.074219 245.601562 195.386719 246.496094 175.714844 245.515625 C 175.710938 245.675781 175.707031 245.832031 175.703125 245.992188 C 163.921875 245.976562 152.136719 245.734375 140.359375 245.933594 C 124.246094 246.203125 107.152344 247.550781 93.859375 236.898438 C 83.078125 228.253906 84.820312 209.738281 96.625 202.164062 C 104.621094 197.03125 114.761719 196.925781 123.914062 195.992188 C 124.570312 195.925781 125.222656 196.148438 125.878906 196.226562 C 121.710938 161.148438 120.851562 129.644531 105.21875 117.941406 C 94.273438 109.746094 79.101562 110.449219 69.71875 119.445312 C 59.078125 129.648438 60.703125 155.933594 60.625 170.179688 C 60.539062 186.507812 59.609375 204.464844 64.253906 220.296875 C 67.523438 231.453125 74.503906 242.9375 85.058594 250.832031 C 101.175781 262.882812 122.648438 259.789062 141.367188 259.558594 C 153.304688 259.410156 165.195312 260.035156 177.101562 260.339844 C 196.015625 261.027344 214.824219 259.324219 233.742188 259.558594 C 252.460938 259.789062 273.933594 262.882812 290.050781 250.832031 C 300.605469 242.9375 307.585938 231.453125 310.855469 220.296875 C 315.5 204.464844 314.570312 186.507812 314.484375 170.179688 Z M 314.484375 170.179688 " fill-opacity="1" fill-rule="evenodd"/><path fill="#f3eee4" d="M 117.203125 68.578125 C 124.53125 66.316406 135.609375 66.089844 147.839844 66.21875 C 147.675781 66.90625 200.152344 66.503906 227.257812 66.21875 C 239.492188 66.089844 250.574219 66.3125 257.90625 68.578125 C 274.625 73.734375 286.554688 88.953125 288.117188 111.488281 L 293.644531 111.816406 L 291.257812 94.070312 L 281.800781 75.371094 L 263.625 63.097656 L 238.074219 59.089844 C 174.457031 59.617188 201.417969 59.625 137.035156 59.089844 L 111.488281 63.097656 L 93.308594 75.371094 L 83.851562 94.070312 L 81.464844 111.816406 L 86.996094 111.488281 C 88.558594 88.953125 100.484375 73.734375 117.203125 68.578125 Z M 117.203125 68.578125 " fill-opacity="1" fill-rule="nonzero"/><path fill="#f3eee4" d="M 314.070312 162.226562 C 313.179688 143.34375 316.011719 116.628906 291.070312 112.824219 C 287.960938 112.351562 284.886719 112.433594 281.839844 113.089844 C 281.683594 110.984375 281.335938 109.144531 281.398438 107.011719 C 264.550781 108.28125 257.632812 118.296875 252.957031 134.847656 C 249.304688 147.789062 244.085938 181.46875 243.226562 195.402344 C 232.601562 195.097656 140.203125 195.164062 131.882812 195.402344 C 131.023438 181.46875 125.804688 147.789062 122.152344 134.847656 C 117.476562 118.296875 110.558594 108.28125 93.710938 107.011719 C 93.773438 109.144531 93.425781 110.984375 93.269531 113.089844 C 90.222656 112.433594 87.148438 112.351562 84.039062 112.824219 C 59.097656 116.628906 61.933594 143.34375 61.039062 162.226562 C 60.21875 179.609375 58.960938 197.117188 63.378906 214.136719 C 61.953125 203.265625 63.300781 166.675781 66.882812 145.628906 C 64.84375 194.390625 64.8125 227.140625 89.332031 244.15625 C 95.707031 248.574219 102.386719 251.4375 110.148438 251.988281 C 126.238281 253.121094 184.320312 252.53125 184.320312 252.355469 C 212.398438 252.675781 250.390625 253.015625 264.960938 251.988281 C 272.722656 251.4375 279.402344 248.574219 285.777344 244.15625 C 310.378906 227.085938 310.257812 194.15625 308.226562 145.628906 C 311.808594 166.675781 313.15625 203.265625 311.730469 214.136719 C 316.148438 197.117188 314.890625 179.609375 314.070312 162.226562 Z M 90.910156 235.554688 C 75.605469 227.230469 76.582031 159.265625 76.730469 149.386719 C 76.855469 140.804688 76.949219 122.554688 84.171875 119.972656 C 97.515625 115.195312 111.835938 127.710938 119.988281 154.660156 C 117.027344 132.609375 112.652344 126.804688 106.089844 119.777344 C 103.550781 117.058594 100.289062 115.28125 96.773438 114.078125 C 99.964844 114.878906 103.042969 116.097656 105.671875 118.128906 C 122.285156 130.972656 124.871094 174.007812 125.671875 195.015625 C 127.257812 195.175781 128.710938 195.230469 130.207031 195.449219 C 117.0625 195.777344 101.515625 195.820312 91.863281 205.519531 C 83.433594 213.988281 84.628906 225.957031 90.910156 235.554688 Z M 263.085938 238.695312 C 259.523438 238.785156 119.417969 238.882812 112.023438 238.695312 C 92.316406 238.195312 85.316406 215.066406 99.65625 214.574219 C 104.078125 214.421875 271.03125 214.421875 275.453125 214.574219 C 289.792969 215.066406 282.792969 238.195312 263.085938 238.695312 Z M 284.199219 235.554688 C 290.480469 225.957031 291.675781 213.988281 283.246094 205.519531 C 273.59375 195.820312 258.050781 195.777344 244.902344 195.449219 C 246.398438 195.230469 247.855469 195.175781 249.4375 195.015625 C 250.238281 174.007812 252.824219 130.972656 269.4375 118.128906 C 272.066406 116.097656 275.144531 114.878906 278.335938 114.078125 C 274.820312 115.28125 271.558594 117.058594 269.019531 119.777344 C 262.457031 126.804688 258.082031 132.609375 255.121094 154.660156 C 263.273438 127.710938 277.59375 115.195312 290.9375 119.972656 C 298.160156 122.554688 298.253906 140.804688 298.378906 149.386719 C 298.527344 159.265625 299.503906 227.230469 284.199219 235.554688 Z M 284.199219 235.554688 " fill-opacity="1" fill-rule="nonzero"/><g clip-path="url(#9368db0bb9)"><path fill="#432212" d="M 317.003906 188.601562 C 316.867188 170.90625 316.773438 148.96875 315.183594 135.546875 C 313.597656 122.183594 305.464844 114.128906 295.714844 111.175781 C 294.160156 74.144531 273.941406 57.078125 237.316406 57.261719 C 178.660156 57.558594 197.9375 57.566406 137.792969 57.261719 C 101.164062 57.078125 80.949219 74.144531 79.394531 111.175781 C 69.644531 114.128906 61.511719 122.183594 59.925781 135.546875 C 58.335938 148.96875 58.242188 170.90625 58.105469 188.601562 C 57.804688 228.246094 73.210938 258.601562 112.417969 261.714844 L 88.617188 333.164062 C 87.640625 336.09375 92.070312 337.570312 93.042969 334.640625 L 117.257812 261.960938 C 118.484375 261.988281 119.734375 261.988281 121.007812 261.964844 C 156.117188 261.339844 257.828125 261.960938 257.851562 261.960938 L 282.066406 334.640625 C 283.039062 337.570312 287.46875 336.09375 286.492188 333.164062 L 262.691406 261.714844 C 301.902344 258.601562 317.304688 228.242188 317.003906 188.601562 Z M 99.09375 73.261719 C 113.125 61.050781 132.460938 61.902344 147.414062 61.976562 C 158.207031 62.066406 173.183594 61.949219 237.339844 61.929688 C 270.980469 61.917969 289.171875 76.4375 290.992188 110.15625 C 288.679688 109.847656 286.328125 109.804688 283.988281 110.019531 C 282.460938 96.902344 277.679688 85.945312 268.890625 77.761719 C 266.628906 75.660156 263.449219 79.074219 265.710938 81.179688 C 273.757812 88.671875 278.015625 98.757812 279.378906 110.792969 C 255.15625 116.707031 252.859375 141.664062 247.074219 193.09375 C 241.828125 192.988281 242.214844 193.152344 223.058594 193.15625 L 223.296875 66.289062 L 218.628906 66.289062 L 218.390625 193.152344 C 217.542969 193.152344 216.6875 193.152344 215.832031 193.148438 L 216.070312 66.289062 L 211.402344 66.289062 L 211.164062 193.140625 C 204.949219 193.128906 198.75 193.105469 193.277344 193.078125 L 193.511719 66.289062 L 188.84375 66.289062 L 188.609375 193.058594 C 187.726562 193.054688 186.871094 193.046875 186.050781 193.042969 L 186.285156 66.289062 L 181.597656 66.289062 C 181.613281 73.421875 181.628906 59.03125 181.382812 193.019531 C 173.890625 192.976562 175.378906 193.117188 163.945312 193.140625 L 163.707031 66.289062 L 159.039062 66.289062 L 159.277344 193.148438 C 158.421875 193.152344 157.566406 193.152344 156.71875 193.152344 L 156.480469 66.289062 L 151.8125 66.289062 L 152.050781 193.15625 C 132.84375 193.152344 133.316406 192.988281 128.035156 193.09375 C 122.246094 141.625 119.9375 116.703125 95.730469 110.792969 C 97.09375 98.757812 101.351562 88.671875 109.402344 81.179688 C 111.660156 79.074219 108.480469 75.65625 106.21875 77.761719 C 97.429688 85.945312 92.648438 96.902344 91.121094 110.019531 C 88.78125 109.804688 86.429688 109.847656 84.117188 110.15625 C 85.046875 92.921875 90.261719 80.949219 99.09375 73.261719 Z M 94.167969 207.121094 C 102.726562 198.234375 121.402344 197.589844 133.894531 197.742188 C 235.523438 198.96875 267.402344 193.0625 280.941406 207.121094 C 274.941406 206.03125 103.402344 205.441406 94.167969 207.121094 Z M 284.734375 213.058594 C 285.582031 215.222656 286.082031 217.660156 286.222656 220.402344 C 286.8125 232.085938 279.066406 238.453125 267.988281 242.21875 C 258.800781 244.539062 124.621094 243.648438 119.859375 243.699219 C 105.042969 243.867188 95.113281 237.628906 91.261719 231.117188 C 88.003906 225.613281 88.40625 218.085938 90.375 213.058594 C 96.328125 210.230469 105.230469 210.96875 145.753906 210.90625 C 279.125 210.707031 279.203125 210.429688 284.734375 213.058594 Z M 254.1875 257.300781 C 232.46875 256.910156 142.09375 256.921875 120.925781 257.300781 C 79.164062 258.046875 62.457031 229.898438 62.777344 188.636719 C 62.910156 171.113281 62.984375 149.386719 64.5625 136.097656 C 67.714844 109.53125 101.632812 107.996094 111.59375 128.980469 C 118.523438 143.585938 121.386719 175.570312 123.355469 193.257812 C 120.007812 193.425781 116.867188 193.714844 113.9375 194.125 C 107.265625 155.285156 106.125 127.316406 77.953125 128.851562 C 76.554688 128.925781 76.667969 131.046875 78.070312 130.96875 C 103.8125 129.5625 104.941406 154.269531 111.839844 194.449219 C 110.828125 194.617188 109.847656 194.804688 108.890625 195.007812 C 107.699219 187.5 103.191406 160.484375 98.671875 152.113281 C 93.335938 142.222656 84.109375 139.757812 77.101562 139.046875 C 75.707031 138.90625 75.488281 141.015625 76.886719 141.160156 C 83.34375 141.8125 91.886719 144.011719 96.804688 153.121094 C 101.28125 161.410156 105.695312 188.289062 106.820312 195.484375 C 105.335938 195.855469 104.308594 196.164062 103.222656 196.523438 C 97.183594 159.1875 96.410156 151.375 77.066406 147.957031 C 75.683594 147.714844 75.3125 149.800781 76.695312 150.046875 C 94.457031 153.1875 95.058594 159.335938 101.191406 197.25 C 90.617188 201.324219 84.8125 208.578125 84.226562 220.164062 C 84.101562 222.601562 84.195312 225.773438 85.296875 229.175781 C 81.148438 224.433594 78.359375 218.871094 77.296875 212.988281 C 72.550781 186.746094 71.777344 135.027344 75.617188 126.996094 C 76.945312 124.210938 72.734375 122.195312 71.402344 124.984375 C 66.65625 134.929688 68.1875 188.859375 72.703125 213.820312 C 75.410156 228.789062 88.003906 242.132812 105.800781 246.699219 C 116.445312 250.082031 136.957031 247.039062 255.199219 248.367188 C 279.988281 248.644531 298.984375 232.738281 302.40625 213.820312 C 306.957031 188.667969 308.425781 134.871094 303.707031 124.984375 C 302.375 122.199219 298.164062 124.207031 299.492188 126.996094 C 303.324219 135.015625 302.570312 186.683594 297.8125 212.988281 C 296.75 218.871094 293.960938 224.433594 289.8125 229.175781 C 290.914062 225.773438 291.007812 222.601562 290.882812 220.164062 C 290.296875 208.578125 284.492188 201.324219 273.917969 197.25 C 280.054688 159.320312 280.660156 153.183594 298.414062 150.046875 C 299.796875 149.804688 299.425781 147.714844 298.042969 147.957031 C 278.667969 151.378906 277.914062 159.273438 271.886719 196.523438 C 270.835938 196.175781 269.820312 195.867188 268.289062 195.484375 C 269.414062 188.289062 273.828125 161.410156 278.304688 153.121094 C 283.222656 144.011719 291.765625 141.8125 298.222656 141.160156 C 299.621094 141.015625 299.402344 138.90625 298.007812 139.046875 C 291 139.757812 281.773438 142.222656 276.4375 152.113281 C 271.917969 160.484375 267.410156 187.5 266.21875 195.007812 C 265.261719 194.804688 264.28125 194.617188 263.269531 194.449219 C 270.109375 154.601562 271.199219 129.558594 297.039062 130.96875 C 298.441406 131.046875 298.558594 128.925781 297.15625 128.851562 C 269.003906 127.316406 267.863281 155.167969 261.171875 194.125 C 258.242188 193.714844 255.101562 193.425781 251.753906 193.257812 C 253.722656 175.570312 256.585938 143.585938 263.515625 128.980469 C 273.476562 107.996094 307.394531 109.53125 310.546875 136.097656 C 312.125 149.386719 312.199219 171.113281 312.332031 188.636719 C 312.652344 229.902344 295.945312 258.046875 254.1875 257.300781 Z M 254.1875 257.300781 " fill-opacity="1" fill-rule="nonzero"/></g></svg>